<?xml version="1.0" encoding="iso-8859-1"?>
<!-- Generator: Adobe Illustrator 19.0.0, SVG Export Plug-In . SVG Version: 6.00 Build 0)  -->
<svg xmlns="http://www.w3.org/2000/svg" xmlns:xlink="http://www.w3.org/1999/xlink" version="1.1" id="Capa_1" x="0px" y="0px" viewBox="0 0 512 512" style="enable-background:new 0 0 512 512;" xml:space="preserve" width="512" height="512">
<g>
	<g>
		<path style="fill:#AF4655;" d="M489.779,210.985l9.773,12.595c2.528,3.258,1.358,8.02-2.391,9.737l-56.786,25.996l39.389-48.442    C482.361,207.676,487.256,207.732,489.779,210.985z"/>
		<path style="fill:#AF4655;" d="M22.221,210.985l-9.773,12.595c-2.528,3.258-1.358,8.02,2.391,9.737l56.786,25.996l-39.389-48.442    C29.639,207.676,24.744,207.732,22.221,210.985z"/>
		<path style="fill:#B95F64;" d="M470.546,241.253c-17.587-25.521-52.525-31.952-78.045-14.361    c-37.839,26.076-86.316,40.438-136.5,40.438s-98.662-14.361-136.5-40.438c-25.521-17.59-60.459-11.159-78.045,14.361    c-17.587,25.517-11.155,60.459,14.361,78.045C112.2,358.159,183.294,379.558,256,379.558s143.8-21.399,200.184-60.259    C481.701,301.712,488.132,266.77,470.546,241.253z"/>
		<path style="fill:#AF4655;" d="M456.185,289.491C399.8,328.351,328.706,349.75,256,349.75s-143.8-21.399-200.184-60.259    c-11.299-7.787-18.836-18.982-22.222-31.25c-6.146,22.378,2.035,47.145,22.222,61.058C112.2,358.159,183.294,379.558,256,379.558    s143.8-21.399,200.184-60.259c20.187-13.914,28.368-38.68,22.222-61.058C475.02,270.509,467.483,281.703,456.185,289.491z"/>
	</g>
	<g>
		<path d="M510.425,225.359l-19.657-25.333c-1.416-1.825-3.593-2.895-5.903-2.902c-0.007,0-0.015,0-0.022,0    c-2.301,0-4.476,1.056-5.897,2.866l-17.063,21.718c-7.624-5.581-16.464-9.422-26.029-11.183    c-16.712-3.075-33.622,0.543-47.612,10.192c-3.41,2.352-4.268,7.022-1.916,10.432c2.351,3.41,7.022,4.268,10.432,1.916    c10.691-7.373,23.611-10.139,36.381-7.788c12.77,2.35,23.861,9.535,31.231,20.232c15.211,22.07,9.629,52.402-12.442,67.614    C396.786,351.127,327.204,372.058,256,372.058s-140.786-20.93-195.928-58.935C38,297.911,32.418,267.579,47.63,245.509    c7.369-10.694,18.46-17.877,31.229-20.227c12.769-2.35,25.691,0.415,36.384,7.785c10.19,7.023,21.128,13.214,32.639,18.543    l-14.424,14.425c-2.929,2.929-2.929,7.678,0,10.606c1.464,1.465,3.384,2.197,5.303,2.197s3.839-0.732,5.303-2.197l18.731-18.731    c6.574,2.516,13.303,4.758,20.156,6.729l-19.559,19.558c-2.929,2.929-2.929,7.678,0,10.607c1.464,1.465,3.384,2.197,5.303,2.197    c1.919,0,3.839-0.732,5.303-2.197l25.908-25.907c7.556,1.625,15.231,2.927,22.995,3.89L197.589,298.1    c-2.929,2.929-2.929,7.678,0,10.606c1.464,1.465,3.384,2.197,5.303,2.197s3.839-0.732,5.303-2.197l34.225-34.225    c4.51,0.227,9.038,0.348,13.58,0.348c4.444,0,8.877-0.122,13.297-0.341l-19.603,19.603c-2.929,2.929-2.929,7.677,0,10.606    c1.464,1.465,3.384,2.197,5.303,2.197c1.919,0,3.839-0.732,5.303-2.197l32.392-32.392c11.497-1.586,22.815-3.904,33.832-6.947    l-8.692,8.692c-2.929,2.929-2.929,7.678,0,10.606c1.464,1.465,3.384,2.197,5.303,2.197s3.839-0.732,5.303-2.197l30.878-30.879    c2.064-0.9,4.113-1.826,6.142-2.781c3.748-1.764,5.355-6.232,3.591-9.98s-6.233-5.356-9.98-3.591    c-31.136,14.657-66.778,22.404-103.072,22.404c-48.68,0-95.645-13.891-132.244-39.113c-13.993-9.645-30.903-13.263-47.611-10.187    c-9.564,1.76-18.403,5.6-26.026,11.18L33.054,199.99c-1.422-1.81-3.596-2.866-5.897-2.866c-0.007,0-0.015,0-0.022,0    c-2.31,0.007-4.487,1.078-5.903,2.902L1.575,225.359c-1.416,1.825-1.912,4.2-1.345,6.439c0.567,2.239,2.134,4.092,4.247,5.022    l24.836,10.94c-11.874,27.32-3.185,60.186,22.247,77.714c57.622,39.713,130.227,61.584,204.441,61.584    s146.819-21.871,204.441-61.584c25.432-17.528,34.121-50.394,22.247-77.713l24.835-10.94c2.113-0.931,3.68-2.784,4.247-5.022    C512.337,229.559,511.841,227.184,510.425,225.359z M27.193,216.81l11.917,15.168c-0.751,0.891-1.475,1.81-2.182,2.746    l-17.614-7.759L27.193,216.81z M475.072,234.724c-0.707-0.936-1.431-1.856-2.182-2.746l11.916-15.167l7.879,10.155    L475.072,234.724z"/>
		<path d="M240.484,228.638c0,4.142,3.358,7.5,7.5,7.5s7.5-3.358,7.5-7.5c0-4.691,1.888-6.785,5.816-10.709    c4.312-4.307,10.216-10.205,10.216-21.322c0-11.126-5.902-17.031-10.211-21.343c-3.931-3.933-5.821-6.033-5.821-10.739    s1.89-6.806,5.821-10.74c4.31-4.312,10.211-10.217,10.211-21.343c0-4.142-3.358-7.5-7.5-7.5s-7.5,3.358-7.5,7.5    c0,4.706-1.89,6.806-5.821,10.74c-4.31,4.312-10.211,10.217-10.211,21.343s5.902,17.031,10.211,21.343    c3.931,3.934,5.821,6.033,5.821,10.74c0,4.691-1.888,6.785-5.816,10.709C246.388,211.623,240.484,217.521,240.484,228.638z"/>
		<path d="M211.267,210.272c-1.289,3.937,0.858,8.173,4.795,9.461c0.775,0.254,1.561,0.374,2.334,0.374    c3.155,0,6.092-2.008,7.126-5.169c1.595-4.874,4.059-9.333,7.531-13.633c2.219-2.748,2.22-6.671,0.003-9.421    c-6.485-8.041-9.638-16.991-9.638-27.361c0-4.142-3.358-7.5-7.5-7.5s-7.5,3.358-7.5,7.5c0,11.759,3.194,22.516,9.506,32.059    C215.048,200.905,212.854,205.423,211.267,210.272z"/>
		<path d="M288.582,196.608c0,4.815-0.705,9.415-2.095,13.672c-1.286,3.938,0.864,8.172,4.801,9.458    c0.773,0.252,1.558,0.372,2.33,0.372c3.157,0,6.095-2.01,7.128-5.174c1.882-5.763,2.836-11.929,2.836-18.328    c0-13.751-4.368-26.132-12.981-36.797c-2.603-3.222-7.325-3.724-10.547-1.122c-3.222,2.603-3.725,7.324-1.123,10.547    C285.425,177.276,288.582,186.23,288.582,196.608z"/>
	</g>
</g>















</svg>
