<?xml version="1.0" encoding="iso-8859-1"?>
<!-- Generator: Adobe Illustrator 19.0.0, SVG Export Plug-In . SVG Version: 6.00 Build 0)  -->
<svg xmlns="http://www.w3.org/2000/svg" xmlns:xlink="http://www.w3.org/1999/xlink" version="1.1" id="Layer_1" x="0px" y="0px" viewBox="0 0 511.989 511.989" style="enable-background:new 0 0 511.989 511.989;" xml:space="preserve" width="512" height="512">
<g>
	<g>
		<g>
			<g>
				<path style="fill:#F7DB8D;" d="M258.453,240.799l-43.161-37.989c24.97-25.98,28.722-67.295,3.136-92.897l-77.817-77.863      c-4.826-4.829-12.651-4.829-17.478,0l0,0c-4.826,4.829-4.826,12.659,0,17.488l61.968,62.005l-19.031,19.043L104.103,68.58      c-4.826-4.829-12.651-4.829-17.477,0v0c-4.826,4.829-4.826,12.659,0,17.488l61.967,62.005l-19.031,19.043L67.594,105.11      c-4.826-4.829-12.651-4.829-17.477,0h0c-4.826,4.829-4.826,12.659,0,17.488l61.968,62.005l-19.031,19.043l-61.968-62.005      c-4.826-4.829-12.651-4.829-17.477,0c-4.826,4.829-4.826,12.659,0,17.488l77.819,77.863      c24.824,24.838,68.486,21.804,94.536-0.974l32.584,38.886"/>
			</g>
		</g>
		<g>
			<g>
				<path style="fill:#F7DB8D;" d="M328.879,303.095l-30.556-26.978l-39.567,46.352l122.309,145.26      c0.813,0.96,1.621,1.834,2.448,2.666c9.738,9.738,23.138,14.463,37.07,12.863c7.959-0.914,15.562-4.024,21.882-8.932      c21.643-16.806,23.028-48.294,4.207-67.126c-0.828-0.833-1.702-1.637-2.661-2.455l-48.205-42.56"/>
			</g>
		</g>
		<g>
			<g>
				<g>
					<line style="fill:#F7DB8D;" x1="362.937" y1="333.165" x2="362.937" y2="333.165"/>
				</g>
			</g>
			<g>
				<g>
					<path d="M362.939,343.166c-0.65,0-1.311-0.07-1.96-0.2c-0.631-0.13-1.261-0.32-1.87-0.57c-0.601-0.25-1.181-0.56-1.721-0.92       c-0.55-0.359-1.06-0.779-1.52-1.239c-0.46-0.46-0.88-0.971-1.25-1.52c-0.36-0.54-0.67-1.12-0.92-1.73       c-0.25-0.601-0.44-1.23-0.57-1.87c-0.13-0.641-0.189-1.301-0.189-1.95c0-0.65,0.06-1.311,0.189-1.96       c0.13-0.63,0.32-1.26,0.57-1.87c0.25-0.6,0.56-1.18,0.92-1.72c0.37-0.551,0.79-1.06,1.25-1.521c0.46-0.46,0.97-0.88,1.52-1.25       c0.54-0.359,1.12-0.66,1.721-0.91c0.609-0.25,1.239-0.449,1.87-0.58c1.29-0.25,2.619-0.25,3.909,0       c0.641,0.131,1.27,0.33,1.87,0.58c0.61,0.25,1.19,0.551,1.73,0.91c0.55,0.37,1.06,0.79,1.52,1.25       c0.46,0.46,0.88,0.97,1.24,1.521c0.36,0.54,0.67,1.12,0.92,1.72c0.25,0.61,0.44,1.24,0.57,1.87c0.13,0.649,0.2,1.31,0.2,1.96       c0,0.649-0.07,1.31-0.2,1.95c-0.13,0.64-0.32,1.27-0.57,1.87c-0.25,0.609-0.56,1.19-0.92,1.73c-0.36,0.55-0.78,1.061-1.24,1.52       c-0.46,0.46-0.97,0.88-1.52,1.239c-0.54,0.36-1.12,0.67-1.73,0.92c-0.6,0.25-1.229,0.44-1.87,0.57       C364.249,343.095,363.588,343.166,362.939,343.166z"/>
				</g>
			</g>
		</g>
	</g>
	<g>
		<g>
			<g>
				<path style="fill:#E26D55;" d="M142.897,458.196l195.546-229.078c33.76,17.54,79.018,15.459,106.317-11.856      c35.834-35.855,57.229-78.934,57.229-115.235c0-19.555-6.263-36.159-18.102-48.01c-17.211-17.221-43.766-22.4-74.779-14.589      c-29.87,7.528-61.256,26.612-88.368,53.74c-16.553,16.563-25.67,38.589-25.67,62.016c0,14.094,7.417,31.958,13.826,44.36      L79.95,395.212c-0.956,0.81-1.826,1.615-2.655,2.44c-8.434,8.444-13.078,19.662-13.078,31.598      c0,11.937,4.644,23.159,13.078,31.598c17.413,17.423,45.744,17.423,63.157,0C141.283,460.023,142.082,459.152,142.897,458.196      L142.897,458.196z"/>
			</g>
		</g>
		<path d="M450.57,397.195l-48.146-42.507c-4.141-3.658-10.461-3.263-14.114,0.878c-3.655,4.14-3.263,10.459,0.878,14.114    l48.205,42.56c0.042,0.037,0.084,0.074,0.127,0.11c0.768,0.656,1.442,1.277,2.079,1.918c7.077,7.081,10.775,16.886,10.146,26.9    c-0.632,10.063-5.396,19.032-13.413,25.259c-4.9,3.805-10.741,6.19-16.891,6.896c-10.743,1.236-21.268-2.41-28.837-9.979    c-0.674-0.679-1.299-1.358-1.891-2.057L271.866,322.513l27.461-32.17l22.934,20.247c4.14,3.656,10.46,3.261,14.114-0.878    c3.655-4.14,3.263-10.459-0.878-14.114l-23.184-20.469l28.774-33.709c16.83,7.197,35.665,10.222,53.852,8.548    c22.528-2.071,42.201-10.937,56.894-25.637c37.668-37.691,60.156-83.412,60.156-122.305c0-22.262-7.271-41.307-21.029-55.079    c-19.795-19.808-49.73-25.923-84.296-17.217c-31.602,7.965-64.629,27.982-92.997,56.367    c-18.44,18.452-28.597,42.987-28.597,69.086c0,14.115,6.137,30.383,11.434,41.796l-36.884,31.523l-30.352-26.714    c9.907-13.188,15.707-28.86,16.538-45.058c1.057-20.591-6.154-39.729-20.305-53.889l-77.816-77.863    c-4.224-4.226-9.839-6.553-15.813-6.553c-5.974,0.001-11.589,2.328-15.812,6.554c-8.714,8.72-8.714,22.906,0,31.626l54.903,54.936    l-4.894,4.896L111.176,61.51c-4.224-4.225-9.839-6.553-15.813-6.553c-5.973,0-11.588,2.327-15.812,6.553    c-8.713,8.719-8.714,22.906,0,31.627l54.903,54.936l-4.894,4.896L74.667,98.041c-4.224-4.226-9.839-6.553-15.811-6.553    c-5.973,0-11.588,2.327-15.813,6.553c-8.714,8.72-8.714,22.907,0,31.627l54.903,54.936l-4.894,4.896l-54.895-54.928    c-4.224-4.226-9.839-6.553-15.812-6.553s-11.589,2.327-15.811,6.553c-8.715,8.719-8.716,22.905-0.001,31.626l77.818,77.862    c13.696,13.704,32.931,20.915,54.172,20.296c16.36-0.474,32.601-5.702,45.903-14.599l20.999,25.061L73.484,387.584    c-1.128,0.957-2.188,1.932-3.264,3.001c-10.319,10.332-16.003,24.063-16.003,38.666c0,14.608,5.685,28.341,16.005,38.666    c10.311,10.317,24.037,15.999,38.652,15.999c14.613,0,28.341-5.682,38.628-15.976c1.002-0.996,1.984-2.06,3.003-3.255    l-0.003,0.003l108.201-126.756l114.732,136.26c0.958,1.131,1.935,2.194,3.008,3.273c10.406,10.406,24.292,16.097,38.851,16.096    c2.131,0,4.279-0.122,6.43-0.369c9.788-1.124,19.081-4.916,26.876-10.968c12.432-9.654,20.125-24.161,21.107-39.802    c0.988-15.739-4.829-31.154-15.942-42.273C452.776,399.156,451.731,398.189,450.57,397.195z M193.628,229.595    c-1.727-2.061-4.211-3.339-6.892-3.547c-2.688-0.211-5.333,0.673-7.355,2.441c-20.777,18.167-59.104,23.223-80.881,1.432    l-77.818-77.862c-0.923-0.923-0.924-2.426,0-3.349c0.57-0.571,1.221-0.691,1.665-0.691s1.095,0.12,1.665,0.691l61.968,62.005    c1.876,1.876,4.42,2.931,7.073,2.931c2.653,0,5.197-1.055,7.073-2.931l19.031-19.043c3.902-3.905,3.902-10.233,0-14.139    L57.19,115.529c-0.923-0.923-0.923-2.427-0.001-3.35c0.571-0.571,1.222-0.691,1.667-0.691c0.444,0,1.095,0.12,1.665,0.691    l61.968,62.005c1.876,1.876,4.42,2.931,7.073,2.931c2.653,0,5.197-1.055,7.073-2.931l19.031-19.042    c3.902-3.905,3.902-10.233,0-14.139L93.7,79c-0.924-0.924-0.924-2.428-0.001-3.351c0.57-0.571,1.221-0.691,1.665-0.691    c0.445,0,1.096,0.12,1.666,0.691l61.968,62.005c1.876,1.876,4.42,2.931,7.073,2.931c2.653,0,5.197-1.055,7.073-2.931    l19.031-19.043c3.902-3.905,3.902-10.233,0-14.139l-61.968-62.005c-0.923-0.923-0.923-2.427,0-3.35    c0.57-0.571,1.221-0.691,1.666-0.691c0.444,0,1.095,0.12,1.665,0.691l77.816,77.863c20.741,20.753,19.304,55.41-3.272,78.898    c-1.891,1.967-2.896,4.621-2.781,7.347c0.113,2.726,1.336,5.287,3.384,7.09l35.576,31.313l-23.628,20.194L193.628,229.595z     M135.291,451.704l-0.003,0.003c-0.659,0.773-1.276,1.443-1.909,2.072c-6.533,6.537-15.235,10.137-24.505,10.137    c-9.271,0-17.973-3.6-24.507-10.137c-6.545-6.549-10.15-15.26-10.15-24.528c0-9.265,3.605-17.977,10.133-24.511    c0.673-0.67,1.35-1.292,2.098-1.927l228.945-195.668c3.53-3.017,4.519-8.067,2.387-12.192c-8.077-15.63-12.71-30.124-12.71-39.768    c0-20.759,8.077-40.273,22.743-54.947c25.851-25.866,55.59-44.019,83.737-51.112c8.603-2.167,16.782-3.237,24.413-3.237    c16.729,0,30.808,5.15,40.849,15.197c9.929,9.938,15.177,24.097,15.177,40.942c0,33.707-20.3,74.144-54.303,108.166    c-22.572,22.585-62.371,26.813-94.634,10.051c-4.128-2.145-9.194-1.158-12.216,2.382L135.291,451.704z"/>
	</g>
	<g>
		<g>
			<g>
				<path d="M340.862,186.85c-3.62,0-7.114-1.973-8.892-5.411c-4.157-8.044-6.354-17.123-6.354-26.256      c0-15.262,5.938-29.609,16.722-40.398c10.909-10.915,22.649-20.373,34.894-28.11c4.67-2.947,10.846-1.556,13.796,3.112      c2.95,4.669,1.557,10.845-3.112,13.796c-10.993,6.946-21.568,15.472-31.431,25.341c-7.009,7.012-10.868,16.338-10.868,26.26      c0,5.952,1.426,11.855,4.122,17.074c2.535,4.906,0.613,10.939-4.293,13.475C343.977,186.491,342.408,186.85,340.862,186.85z"/>
			</g>
		</g>
	</g>
	<g>
		<g>
			<g>
				<g>
					<path d="M101.915,442.478c-2.559,0-5.116-0.976-7.069-2.927c-3.906-3.904-3.908-10.236-0.004-14.143l10.138-10.144       c3.905-3.904,10.235-3.907,14.143-0.004c3.906,3.904,3.908,10.236,0.004,14.143l-10.138,10.144       C107.035,441.501,104.475,442.478,101.915,442.478z"/>
				</g>
			</g>
		</g>
		<g>
			<g>
				<g>
					<path d="M410.063,447.55c-2.561,0-5.12-0.977-7.073-2.931l-10.138-10.143c-3.904-3.906-3.902-10.238,0.004-14.143       c3.906-3.905,10.238-3.902,14.143,0.004l10.138,10.144c3.904,3.906,3.902,10.238-0.004,14.143       C415.18,446.574,412.621,447.55,410.063,447.55z"/>
				</g>
			</g>
		</g>
	</g>
</g>















</svg>
