<svg id="Capa_1" enable-background="new 0 0 512 512" height="512" viewBox="0 0 512 512" width="512" xmlns="http://www.w3.org/2000/svg"><path d="m97.351 263.493-.625-.594c-5.303-5.038-12.338-7.847-19.653-7.847h-12.505c-31.518 0-57.068 25.55-57.068 57.068v28.821c0 21.351 6.156 42.248 17.731 60.189l25.234 39.113c6.568 10.181 17.856 16.331 29.971 16.331h3.198c7.443 0 14.591-2.908 19.92-8.104l.587-.572c3.442-3.356 8.06-5.233 12.867-5.229 4.798.004 9.404 1.88 12.84 5.229l.598.583c5.329 5.196 12.477 8.104 19.92 8.104h3.198c12.116 0 23.403-6.15 29.971-16.331l25.234-39.113c11.575-17.941 17.731-38.839 17.731-60.189v-28.821c0-31.518-25.55-57.068-57.068-57.068h-12.508c-7.313 0-14.346 2.807-19.649 7.843l-.622.591c-11.014 10.459-28.29 10.457-39.302-.004z" fill="#a8dd8a"/><path d="m57.118 226.109-20.24-5.224c-7.817-2.018-14.491-7.101-18.514-14.101l-4.517-7.861c-2.708-4.713-1.156-10.725 3.494-13.539l7.757-4.693c6.908-4.179 15.208-5.397 23.025-3.38l20.24 5.224c8.297 2.141 15.283 7.729 19.194 15.353l3.535 6.889c2.314 4.51.887 10.039-3.321 12.866l-6.427 4.318c-7.111 4.781-15.928 6.29-24.226 4.148z" fill="#bff29e"/><path d="m380.572 127.328-36.459 17.052c-13.962 6.53-30.156 6.256-43.888-.744-12.772-6.51-19.487-20.866-16.296-34.842 3.431-15.027 13.601-27.632 27.563-34.162l30.931-14.467c13.962-6.53 30.156-6.256 43.888.744l14.781 7.534c4.082 2.08 6.228 6.669 5.208 11.135l-5.05 22.122c-2.574 11.273-10.204 20.729-20.678 25.628z" fill="#bff29e"/><path d="m406.3 79.581-5.05 22.12c-2.57 11.27-10.2 20.73-20.68 25.63l-36.46 17.05c-11.42 5.34-24.34 6.13-36.18 2.4 2.1-.65 4.16-1.46 6.18-2.4l36.46-17.05c10.48-4.9 18.11-14.36 20.68-25.63l5.05-22.12c1.02-4.47-1.13-9.06-5.21-11.14l-14.78-7.53c-2.5-1.27-5.08-2.33-7.72-3.15 12.42-3.91 25.97-2.84 37.72 3.15l14.78 7.53c4.08 2.08 6.23 6.67 5.21 11.14z" fill="#a8dd8a"/><path d="m290.833 206.021 4.921-11.956c13.202-51.764-23.401-88.731-46.204-106.068-8.436-6.414-20.627-3.634-25.545 5.754-4.08 7.789-1.648 17.45 5.706 22.27 48.614 31.859 40.894 78.746 40.894 78.746s-.168.962-.543 2.066 20.771 9.188 20.771 9.188z" fill="#d3aa7d"/><path d="m255.956 185.898-.877-.833c-7.434-7.062-17.296-11-27.55-11h-17.529c-44.183 0-80 35.817-80 80v40.401c0 29.93 8.63 59.225 24.856 84.375l35.374 54.83c9.208 14.272 25.031 22.894 42.015 22.894h4.483c10.433 0 20.454-4.076 27.924-11.36l.823-.802c4.825-4.704 11.298-7.335 18.037-7.33 6.725.005 13.183 2.635 17.999 7.33l.839.818c7.47 7.284 17.491 11.36 27.924 11.36h4.483c16.984 0 32.807-8.622 42.015-22.894l35.374-54.83c16.224-25.15 24.854-54.445 24.854-84.375v-40.401c0-44.183-35.817-80-80-80h-17.534c-10.251 0-20.111 3.936-27.544 10.994l-.873.829c-15.439 14.661-39.657 14.659-55.093-.006z" fill="#f49d9d"/><path d="m437 254.081v40.4c0 29.93-8.63 59.23-24.86 84.38l-35.37 54.83c-9.21 14.27-25.03 22.89-42.01 22.89h-4.49c-4.12 0-8.18-.64-12.04-1.86 11.62-3.24 21.83-10.64 28.54-21.03l35.37-54.83c16.23-25.15 24.86-54.45 24.86-84.38v-40.4c0-41.71-31.93-75.98-72.69-79.67 1.7-.22 3.42-.33 5.16-.33h17.53c44.18 0 80 35.82 80 80z" fill="#f27777"/><path d="m394 456.565c-61.028 0-110.5-49.472-110.5-110.5v-2.5c0-2.761 2.239-5 5-5h211c2.761 0 5 2.239 5 5v2.5c0 61.028-49.472 110.5-110.5 110.5z" fill="#fff3c0"/><path d="m504.5 343.561v2.5c0 61.03-49.47 110.5-110.5 110.5-5.09 0-10.1-.34-15-1.02 53.93-7.31 95.5-53.54 95.5-109.48v-2.5c0-2.76-2.24-5-5-5h30c2.76 0 5 2.24 5 5z" fill="#f9e385"/><path d="m499.5 331.065h-59.18c2.76-11.991 4.18-24.256 4.18-36.583v-40.401c0-48.248-39.252-87.5-87.5-87.5h-17.534c-12.227 0-23.843 4.637-32.71 13.058l-.87.827c-.065.062-.133.118-.199.18.897-9.653.226-18.739-1.591-27.237 6.111 2.135 12.46 3.224 18.821 3.224 8.291 0 16.594-1.816 24.378-5.458l36.458-17.055c12.658-5.921 21.7-17.131 24.809-30.754l5.051-22.124c1.784-7.827-1.964-15.84-9.116-19.485l-14.781-7.532c-15.906-8.106-34.301-8.416-50.472-.852l-30.931 14.469c-15.065 7.047-26.114 19.962-30.766 35.767-7.924-8.913-16.308-16.146-23.456-21.581-5.762-4.381-13.129-5.989-20.206-4.412-7.118 1.585-13.14 6.198-16.522 12.656-5.918 11.299-2.376 25.066 8.239 32.022 30.321 19.871 36.794 45.657 37.827 60.159-.791-.623-3.183-2.825-3.183-2.825-8.867-8.423-20.485-13.063-32.715-13.063h-17.531c-45.896 0-83.649 35.52-87.221 80.513-2.776-13.194-8.79-28.875-21.711-39.287l-6.837-13.324c-4.885-9.522-13.63-16.518-23.993-19.192l-20.241-5.224c-9.709-2.504-20.201-.965-28.782 4.225l-7.757 4.693c-8.073 4.884-10.816 15.513-6.115 23.692l4.517 7.861c4.997 8.695 13.432 15.12 23.143 17.626l20.241 5.224c3.086.796 6.23 1.188 9.361 1.188 7.383 0 14.685-2.18 20.923-6.371l9.04-6.073c11.352 11.473 14.442 29.849 15.255 40.425-2.676-.966-5.178-2.462-7.307-4.485l-.625-.594c-6.727-6.39-15.541-9.91-24.819-9.91h-12.504c-35.603 0-64.568 28.965-64.568 64.569v28.82c0 22.842 6.545 45.061 18.929 64.255l25.234 39.113c7.985 12.376 21.545 19.765 36.274 19.765h3.197c9.454 0 18.387-3.634 25.156-10.233l.587-.572c2.05-1.999 4.755-3.099 7.618-3.099h.008c2.859.002 5.562 1.103 7.608 3.098l.6.585c6.769 6.599 15.703 10.233 25.155 10.233h3.197c14.478 0 27.813-7.151 35.847-19.148 10.812 12.109 26.268 19.127 42.834 19.127h4.482c12.461 0 24.238-4.791 33.162-13.492l.82-.8c3.44-3.354 7.979-5.2 12.782-5.2h.014c4.799.004 9.334 1.851 12.77 5.2l.839.818c8.922 8.699 20.698 13.49 33.159 13.49h4.482c8.325 0 16.614-1.848 24.163-5.34 11.087 3.459 22.871 5.324 35.082 5.324 65.065 0 118-52.935 118-118v-2.5c.001-6.893-5.606-12.5-12.499-12.5zm-422.337-115.328c-5.33 3.581-11.952 4.716-18.17 3.109l-20.24-5.224c-5.826-1.503-10.887-5.358-13.885-10.575l-4.518-7.861c-.671-1.168-.279-2.687.874-3.384l7.757-4.693c3.529-2.135 7.596-3.24 11.683-3.24 1.875 0 3.754.233 5.586.706l20.241 5.224c6.217 1.604 11.464 5.801 14.396 11.515l4.549 8.866zm214.079-105.269c2.937-12.864 11.475-23.449 23.426-29.04l30.931-14.469c11.95-5.59 25.547-5.362 37.306.63l8.045 4.099-20.438 9.561c-3.752 1.755-5.371 6.22-3.615 9.972 1.274 2.724 3.977 4.324 6.798 4.324 1.064 0 2.146-.228 3.173-.708l20.439-9.562-3.368 14.753c-2.072 9.083-8.101 16.557-16.54 20.504l-36.458 17.055c-11.951 5.59-25.549 5.362-37.306-.63-2.364-1.204-4.491-2.778-6.324-4.679-.051-.053-.108-.099-.16-.15l48.014-22.461c3.752-1.755 5.371-6.22 3.615-9.971-1.755-3.752-6.221-5.369-9.971-3.616l-48.018 22.463c-.007-.1-.006-.198-.016-.298-.276-2.598-.118-5.214.467-7.777zm-57.42-.72c-4.129-2.706-5.493-8.087-3.172-12.517 1.329-2.538 3.697-4.351 6.495-4.975 2.802-.623 5.595-.016 7.867 1.711 20.934 15.916 53.986 49.13 44.246 94.92-3.535.634-7.153.676-10.7.131.36-15.263-3.478-52.232-44.736-79.27zm-80.259 339.338h-3.197c-5.518 0-10.733-2.122-14.683-5.972l-.6-.585c-4.862-4.741-11.28-7.354-18.07-7.359-.007 0-.012 0-.019 0-6.797 0-13.222 2.613-18.089 7.359l-.587.572c-3.951 3.852-9.166 5.974-14.684 5.974h-3.197c-9.611 0-18.459-4.821-23.669-12.897l-25.234-39.113c-10.817-16.766-16.534-36.173-16.534-56.124v-28.82c0-27.333 22.236-49.569 49.568-49.569h12.504c5.416 0 10.561 2.054 14.487 5.785l.625.594c8.159 7.751 19.481 11.088 30.314 9.455v16.081c0 31.44 9.009 62.022 26.054 88.441l31.527 48.867-2.848 4.414c-5.209 8.076-14.057 12.897-23.668 12.897zm343.437-103.02c0 56.794-46.206 103-103 103s-103-46.206-103-103h19.333c4.143 0 7.5-3.358 7.5-7.5s-3.357-7.5-7.5-7.5h-21.833c-6.893 0-12.5 5.607-12.5 12.5v2.5c0 44.169 24.398 82.74 60.42 102.964-.555.022-1.11.051-1.665.051h-4.482c-8.525 0-16.583-3.278-22.688-9.23l-.839-.818c-6.25-6.093-14.499-9.453-23.229-9.46-.009 0-.017 0-.025 0-8.737 0-16.995 3.359-23.255 9.462l-.82.8c-6.105 5.952-14.163 9.23-22.689 9.23h-4.482c-14.501 0-27.852-7.274-35.712-19.459l-35.374-54.83c-15.478-23.989-23.658-51.76-23.658-80.309v-40.401c0-39.977 32.523-72.5 72.5-72.5h17.529c8.368 0 16.318 3.174 22.383 8.937l.878.834c18.342 17.425 47.08 17.428 65.426.005l.87-.827c6.066-5.761 14.015-8.933 22.38-8.933h17.532c39.977 0 72.5 32.523 72.5 72.5v40.401c0 12.349-1.553 24.632-4.599 36.583h-79.568c-4.143 0-7.5 3.358-7.5 7.5s3.357 7.5 7.5 7.5z"/><path d="m354.899 379.912c1.271 0 2.559-.324 3.739-1.004l12.691-7.316c3.588-2.069 4.82-6.655 2.752-10.243s-6.654-4.821-10.244-2.752l-12.691 7.316c-3.588 2.069-4.82 6.655-2.752 10.243 1.389 2.409 3.912 3.756 6.505 3.756z"/><path d="m394 402.565c4.143 0 7.5-3.358 7.5-7.5v-15c0-4.142-3.357-7.5-7.5-7.5s-7.5 3.358-7.5 7.5v15c0 4.142 3.357 7.5 7.5 7.5z"/><path d="m416.67 371.591 12.691 7.316c1.181.68 2.468 1.004 3.739 1.004 2.594 0 5.116-1.347 6.505-3.756 2.068-3.588.836-8.174-2.752-10.243l-12.691-7.316c-3.59-2.069-8.175-.838-10.244 2.752-2.068 3.589-.836 8.175 2.752 10.243z"/></svg>