<svg id="Capa_1" enable-background="new 0 0 510.376 510.376" height="512" viewBox="0 0 510.376 510.376" width="512" xmlns="http://www.w3.org/2000/svg"><g><g><g><g><g><path d="m22.542 390.354v19.667c0 5.523 4.477 10 10 10h54.667c5.523 0 10-4.477 10-10v-19.667z" fill="#92a2b5"/></g><g><path d="m45.208 410.021v-19.667h-22.666v19.667c0 5.523 4.477 10 10 10h22.667c-5.523 0-10.001-4.477-10.001-10z" fill="#61748b"/></g><g><path d="m412.551 390.354v19.667c0 5.523 4.477 10 10 10h54.667c5.523 0 10-4.477 10-10v-19.667z" fill="#92a2b5"/></g><g><path d="m435.217 410.021v-19.667h-22.667v19.667c0 5.523 4.477 10 10 10h22.667c-5.522 0-10-4.477-10-10z" fill="#61748b"/></g><g><path d="m7.5 90.355h495.376v300h-495.376z" fill="#fff"/></g><g><path d="m30 368.188v-277.833h-22.5v299.999h495.376v-22.166z" fill="#c8d1da"/></g><g><path d="m37.457 120.11h299.908v240.422h-299.908z" fill="#c4e5f9"/></g><g><path d="m60.133 338.125-.042-217.936-22.658.014.047 240.422 299.908-.186-.004-22.486z" fill="#83c8f1"/></g><g><path d="m337.44 119.976h135.181v240.422h-135.181z" fill="#92a2b5" transform="matrix(-1 .001 -.001 -1 810.209 480.123)"/></g><g><path d="m360.071 337.441-.177-217.437-22.552.014.195 240.422 135.181-.084-.019-22.985z" fill="#61748b"/></g><g><path d="m322.551 150.023h29.666v179.999h-29.666z" fill="#fff"/></g><g><path d="m322.551 310.466h29.666v19.555h-29.666z" fill="#c8d1da"/></g><g><path d="m382.384 150.022h59.824v45.332h-59.824z" fill="#83c8f1"/></g><g><path d="m404.972 172.689v-22.667h-22.588v45.333h59.824v-22.666z" fill="#3d6dea"/></g><g><path d="m382.384 300.023h30v29.999h-30z" fill="#83c8f1"/></g><g><path d="m412.551 300.023h30v29.999h-30z" fill="#3d6dea"/></g><g><path d="m60.063 142.354h15v15h-15z" fill="#fff"/></g><g><path d="m90.063 142.354h15v15h-15z" fill="#fff"/></g><g><path d="m120.063 142.354h15v15h-15z" fill="#fff"/></g></g></g></g><g><path d="m510.376 82.854h-510.376v315h15.042v29.667h89.667v-29.667h225.167v-15h-314.876v-285h480.376v285h-120.501v15h30.176v29.667h89.667v-29.667h15.658zm-420.668 329.667h-59.666v-14.667h59.667v14.667zm390.01 0h-59.667v-14.667h59.667z"/><path d="m344.875 382.854h15v15h-15z"/><path d="m480.042 112.428-450.062.28v255.422l450.062-.28zm-435.062 15.27 284.728-.176v15.001h-14.657v194.999h14.657v15.422l-284.728.176zm285.071 194.823v-164.999h14.667v164.999zm134.991 30.338-120.334.075v-15.413h15.01v-194.999h-15.01v-15.01l120.334-.074z"/><path d="m449.708 142.522h-74.824v60.333h74.824zm-15 45.332h-44.824v-30.333h44.824z"/><path d="m374.884 217.188h15v15h-15z"/><path d="m404.884 217.188h15v15h-15z"/><path d="m434.884 217.188h15v15h-15z"/><path d="m374.884 247.522h15v15h-15z"/><path d="m404.884 247.522h15v15h-15z"/><path d="m434.884 247.522h15v15h-15z"/><path d="m449.884 292.522h-75v44.999h75zm-60 15h15v14.999h-15zm45 14.999h-15v-14.999h15z"/></g></g></svg>