<svg id="Capa_1" enable-background="new 0 0 510.542 510.542" height="512" viewBox="0 0 510.542 510.542" width="512" xmlns="http://www.w3.org/2000/svg"><g><g><g><g><g><path d="m183.166 175.639v-7.416c0-6.59-1.931-13.027-5.531-18.547-4.409-6.762-10.143-16.421-12.012-23.487-3.179-12.018 1.199-24.383 1.199-24.383 1.986-7.43 8.873-34.9 8.873-34.9-10.632 6.779-14.753 17.026-20.579 27.474-2.827 5.069-6.768 9.42-11.462 12.737 0 0-4.378 12.365-1.199 24.383 1.869 7.065 7.603 16.725 12.012 23.486 3.6 5.52 5.531 11.958 5.531 18.548v7.416h24.536c.427-1.741.793-3.516 1.144-5.311z" fill="#31a469"/></g><g><path d="m153.226 180.95c.485-1.978.898-3.995 1.291-6.042 1.324-6.896 3.137-13.398 7.34-19.188 4.278-5.894 9.941-9.791 16.328-13.055 12.428-6.351 23.155-13.781 27.796-27.731 5.711-17.163-1.023-35.755-15.357-46.435-13.526-10.078-32.037-10.647-46.237-1.592-10.632 6.779-14.753 17.026-20.579 27.473-2.827 5.069-6.768 9.421-11.461 12.737 0 0-4.378 12.365-1.199 24.383 1.869 7.065 7.603 16.725 12.012 23.486 3.599 5.52 5.531 11.958 5.531 18.547v7.416h24.535z" fill="#8edf78"/></g><g><path d="m151.859 175.639v-7.416c0-6.59-1.931-13.027-5.531-18.547-4.409-6.762-10.143-16.421-12.012-23.487-3.179-12.018 1.199-24.383 1.199-24.383 1.986-7.43 8.873-34.9 8.873-34.9-10.632 6.779-14.753 17.026-20.579 27.474-2.827 5.069-6.768 9.42-11.462 12.737 0 0-4.378 12.365-1.199 24.383 1.869 7.065 7.603 16.725 12.012 23.486 3.6 5.52 5.531 11.958 5.531 18.548v7.416h24.536c.427-1.741.793-3.516 1.144-5.311z" fill="#31a469"/></g><g><path d="m128.264 167.793c-1.184-7.784-5.015-14.033-9.329-20.397-3.94-5.813-7.255-11.692-8.378-18.758-1.143-7.193.106-13.952 2.314-20.776 4.297-13.278 6.628-26.117.046-39.264-8.098-16.175-26.006-24.559-43.694-21.975-16.69 2.438-30.182 15.125-33.82 31.568-2.724 12.312 1.607 22.471 4.875 33.979 2.541 8.949 1.755 18.619-2.229 27.03-2.149 4.537-5.32 8.562-8.054 12.751-5.99 9.176-7.651 19.252-5.651 28.978l103.596.001c.861-4.279.998-8.706.324-13.137z" fill="#e2fc85"/></g><g><path d="m128.264 167.793c-.368-2.42-.993-4.692-1.808-6.865l-77.075-.001c1.051-3.057 2.513-6.063 4.416-8.978 2.735-4.189 5.905-8.214 8.054-12.751 3.984-8.411 4.77-18.081 2.229-27.03-3.267-11.508-7.599-21.667-4.875-33.979 3.229-14.593 14.221-26.22 28.32-30.358-5.838-1.666-12.083-2.119-18.302-1.21-16.69 2.438-30.182 15.125-33.82 31.568-2.724 12.312 1.607 22.471 4.875 33.979 2.541 8.949 1.755 18.619-2.229 27.03-3.608 7.617-9.696 13.656-12.47 21.729-2.179 5.447-2.389 19.256-2.236 20l104.596.001c.862-4.277.999-8.704.325-13.135z" fill="#8edf78"/></g><g><path d="m314.297 174.056h-135.334c0-37.371 30.295-67.667 67.667-67.667s67.667 30.295 67.667 67.667z" fill="#f05475"/></g><g><path d="m205.373 158.055c0-18.954 7.802-36.077 20.358-48.362-27.14 8.807-46.768 34.286-46.768 64.362h135.333c0-5.514-.676-10.868-1.92-16z" fill="#c51239"/></g><g><path d="m465.179 82.334-98.578 98.578 107.533.002c20.854-30.121 17.869-71.756-8.955-98.58z" fill="#fff"/></g><g><path d="m482.093 159.748-94.325-.001-21.166 21.166 107.533.002c5.874-8.485 9.856-17.883 11.947-27.606-1.219 2.194-2.54 4.347-3.989 6.439z" fill="#c8d1da"/></g><g><path d="m445.089 102.424-69.12 69.13c11.613 6.149 24.582 9.29 37.721 9.135l6.476-.076c8.83-1.389 16.698-5.067 22.81-11.178 15.666-15.664 15.988-41.655 2.113-67.011z" fill="#ffe477"/></g><g><path d="m442.978 149.345c-6.112 6.112-13.98 9.79-22.81 11.178l-6.476.076c-7.974.094-15.883-1.033-23.467-3.302l-14.255 14.257c11.613 6.149 24.582 9.29 37.721 9.135l6.476-.076c8.83-1.389 16.698-5.067 22.81-11.178 10.4-10.4 14.029-25.354 11.238-41.65-1.602 8.264-5.325 15.648-11.237 21.56z" fill="#fcc062"/></g><g><path d="m7.5 217.926c0 135.862 110.931 246 247.771 246s247.771-110.138 247.771-246v-37h-495.542z" fill="#c4e5f9"/></g><g><path d="m503.042 203.042h-472.624v-22.115h-22.918v37c0 135.862 110.931 246 247.771 246 29.276 0 57.36-5.056 83.431-14.312-19.369 4.827-39.637 7.404-60.514 7.404-131.996 0-239.869-102.482-247.342-231.676h472.195v-22.301z" fill="#83c8f1"/></g><g><g><g><path d="m36.342 264.464-.895-3.997-1.951-11.102 14.775-2.582 1.914 10.888.788 3.488z" fill="#fff"/></g><g><path d="m44.972 294.299c-.649-1.69-1.188-3.347-1.71-4.948-.262-.805-.522-1.609-.797-2.41l-1.188-3.588c-.342-.991-.597-1.934-.821-2.767-.103-.376-.203-.753-.313-1.128l14.395-4.22c.14.476.27.954.398 1.433.182.671.353 1.305.531 1.819l.035.104 1.178 3.56c.274.798.561 1.678.847 2.557.482 1.484.938 2.885 1.447 4.21z" fill="#fff"/></g></g></g><g><path d="m412.008 135.024c-4.213-41.483-39.247-73.855-81.842-73.855-32.354 0-60.346 18.677-73.782 45.839 0 0 9.895 2.102 15.585 4.085s12.011 6.326 12.011 6.326c9.093-16.108 26.37-26.984 46.187-26.984 29.272 0 53.001 23.729 53.001 53.001 0 14.636-5.932 27.886-15.524 37.477z" fill="#fcf5be"/></g><g><path d="m301.696 97.589s-6.321-4.343-12.011-6.326-15.585-4.085-15.585-4.085c1.315-2.658 2.774-5.232 4.358-7.718-9.203 7.448-16.775 16.833-22.074 27.546 0 0 9.895 2.102 15.585 4.085s12.011 6.326 12.011 6.326c9.092-16.108 17.716-19.828 17.716-19.828z" fill="#f0d5b3"/></g></g></g></g><g><path d="m487.101 173.426c17.42-36.47 5.348-74.43-21.922-101.698l-48.344 48.344c-20.422-75.926-126.027-89.138-164.698-21.028-12.649-.778-25.374 1.748-36.789 7.251 4.337-52.263-65.59-71.636-91.4-27.78-6.65-41.064-61.751-53.205-86.748-21.171-14.101 18.071-9.256 35.286-4.528 55.534 5.627 24.102-16.837 37.164-16.641 60.549h-16.031v44.5c0 67.723 26.56 131.389 74.786 179.27 48.212 47.868 112.31 74.229 180.485 74.229s132.272-26.362 180.484-74.229c48.227-47.882 74.786-111.548 74.786-179.27v-44.5h-23.44zm-17.047 0h-20.527c15.223-16.496 16.898-43.03 4.669-69.502l10.7-10.7c18.439 22.856 20.643 55.003 5.158 80.202zm-297.373 0h-10.193c1.913-8.542 5.871-15.64 13.198-20.618-1.906 6.681-2.943 13.65-3.005 20.618zm26.654-35.58c11.231-9.876 20.075-19.116 35.41-22.539 11.599-2.589 23.84-1.363 34.915 2.925 22.199 8.595 36.97 31.67 37.161 55.193h-119.14c.141-12.852 4.348-25.662 11.654-35.579zm122.486 35.58c-.152-23.34-10.9-44.176-27.619-57.845 46.631-45.205 109.963 17.161 69.279 57.845zm67.101-4.227 53.842-53.843c15.07 31.266 1.736 69.687-53.842 53.843zm-58.756-100.53c37.49 0 68.772 27.336 73.999 64.073l-13.568 13.568c2.705-58.129-73.938-85.882-108.937-39.041-4.306-2.314-8.935-4.102-13.626-5.462 13.78-20.655 36.799-33.138 62.132-33.138zm-197.03 24.235c10.276-19.277 29.91-33.274 51.304-19.501 16.306 10.498 22.003 34.678 8.307 49.676l.078.071c-1.159 1.333-23.973 14.615-32.04 22.423-7.81 7.56-11.6 17.368-13.618 27.853h-10.987c-.003-23.954-24.163-37.765-16.359-62.644 5.866-4.964 9.742-11.18 13.315-17.878zm-96.861 63.145c6.584-10.079 12.561-19.379 12.952-31.879.381-12.166-5.962-22.66-6.98-34.544-1.972-23.013 19.933-40.322 41.959-34.893 26.739 6.591 26.645 31.399 20.874 53.058-2.936 11.017-3.367 21.471 1.101 32.168 4.776 11.435 15.001 20.306 15.003 33.467h-37.867v-89.862h-15v89.862h-37.27c-.058-6.068 1.708-11.985 5.228-17.377zm218.996 300.377c-127.438 0-232.003-98.998-239.788-223.583h404.683v-15h-405.166v-29.417h480.542v29.417h-30.375v15h29.891c-7.785 124.585-112.349 223.583-239.787 223.583z"/><path d="m435.167 217.843h15v15h-15z"/><path d="m130.455 107.817h45.351v15h-45.351z" transform="matrix(.707 -.707 .707 .707 -36.69 142.064)"/><path d="m240.084 128.139h15v15h-15z"/><path d="m213.567 139.122h15v15h-15z" transform="matrix(.707 -.707 .707 .707 -38.929 199.263)"/><path d="m266.6 139.122h15v15h-15z" transform="matrix(.707 -.707 .707 .707 -23.391 236.776)"/></g></g></svg>