<svg id="Capa_1" enable-background="new 0 0 512.008 512.008" height="512" viewBox="0 0 512.008 512.008" width="512" xmlns="http://www.w3.org/2000/svg"><g><g><path d="m492.264 257.005c0-22.04 16.58-45.961 11.147-66.288-5.621-21.032-32.103-33.436-42.757-51.851-10.807-18.679-8.42-47.772-23.579-62.932-15.159-15.159-44.252-12.772-62.932-23.579-18.414-10.654-30.818-37.136-51.85-42.757-20.327-5.433-44.248 11.147-66.288 11.147s-45.961-16.58-66.288-11.147c-21.032 5.622-33.436 32.103-51.851 42.757-18.679 10.807-47.772 8.42-62.932 23.579-15.159 15.159-12.772 44.252-23.579 62.932-10.654 18.414-37.136 30.818-42.757 51.85-5.433 20.327 11.147 44.248 11.147 66.288s-16.58 45.961-11.147 66.288c5.622 21.032 32.103 33.436 42.757 51.851 10.807 18.679 8.42 47.772 23.579 62.932 15.159 15.159 44.252 12.772 62.932 23.579 18.414 10.654 30.818 37.136 51.85 42.757 20.327 5.433 44.248-11.147 66.288-11.147s45.961 16.58 66.288 11.147c21.032-5.621 33.436-32.103 51.851-42.757 18.679-10.807 47.772-8.42 62.932-23.579 15.159-15.159 12.772-44.252 23.579-62.932 10.654-18.414 37.136-30.818 42.757-51.85 5.433-20.327-11.147-44.248-11.147-66.288z" fill="#ffc736"/><path d="m449.954 410.235c-2.56 10.67-5.81 20.77-12.88 27.84-15.16 15.16-44.25 12.77-62.93 23.58-18.42 10.65-30.82 37.14-51.85 42.76-20.33 5.43-44.25-11.15-66.29-11.15-14.68 0-30.2 7.35-44.93 10.66h-.01c-7.74 2.59-14.57 2.49-20.8.62-.18-.05-.37-.08-.55-.13-11.88-3.18-21.01-13.02-30.03-22.9-7.07-7.4-14.04-14.87-21.77-19.83-.02-.01-.03-.02-.05-.03-.01-.01-.02-.01-.03-.02-9.13-4.34-18.74-6.76-27.95-9.06-13.17-2.93-26.32-5.87-34.95-14.5-1.12-1.12-2.15-2.32-3.09-3.59-4.73-5.67-8.17-13.36-9.78-24.17 0-.03-.01-.07-.02-.1-2.91-12.19-4.93-25.11-10.69-35.07-10.65-18.42-37.14-30.82-42.76-51.85-5.43-20.33 11.15-44.25 11.15-66.29s-16.58-45.96-11.15-66.29c5.62-21.03 32.11-33.43 42.76-51.85 10.81-18.68 8.42-47.77 23.58-62.93 11.66-11.66 31.55-12.94 48.62-17.83-9.99 5.54-19.26 11.47-25.62 17.83-15.16 15.16-12.77 44.25-23.58 62.93-10.65 18.42-37.14 30.82-42.76 51.85-5.43 20.33 11.15 44.25 11.15 66.29s-16.58 45.96-11.15 66.29c5.62 21.03 32.11 33.43 42.76 51.85 6.62 11.43 8.29 26.75 12.06 40.4 1.9 6.86 7.42 12.11 14.37 13.59 11.12 2.37 22.41 4.55 31.4 9.52 4.28 2.37 8.26 5.51 12.09 9.04 3.84 3.53 7.53 7.43 11.25 11.31 5.35 5.59 10.75 11.13 16.71 15.43 2.71 1.95 5.54 3.65 8.52 4.97 1.86.82 3.78 1.5 5.78 2.01 21.3 5.43 46.37-11.15 69.47-11.15s48.17 16.58 69.47 11.15c22.05-5.62 35.05-32.11 54.35-42.76 19.58-10.81 50.07-8.42 65.96-23.58 1.56-1.49 2.94-3.11 4.17-4.84z" fill="#faaa0a"/><path d="m453.111 257.005c0-18.387 13.832-38.345 9.3-55.303-4.69-17.547-26.783-27.895-35.672-43.258-9.016-15.584-7.025-39.856-19.672-52.503s-36.919-10.655-52.503-19.672c-15.363-8.888-25.711-30.982-43.258-35.671-16.958-4.533-36.915 9.3-55.303 9.3-18.387 0-38.345-13.832-55.303-9.3-17.547 4.69-27.895 26.783-43.258 35.672-15.584 9.016-39.856 7.025-52.503 19.672s-10.655 36.919-19.672 52.503c-8.888 15.363-30.982 25.711-35.671 43.258-4.533 16.958 9.3 36.915 9.3 55.303 0 18.387-13.832 38.345-9.3 55.303 4.69 17.547 26.783 27.895 35.672 43.258 9.016 15.584 7.025 39.856 19.672 52.503s36.919 10.655 52.503 19.672c15.363 8.888 25.711 30.982 43.258 35.671 16.958 4.533 36.915-9.3 55.303-9.3 18.387 0 38.345 13.832 55.303 9.3 17.547-4.69 27.895-26.783 43.258-35.672 15.584-9.016 39.856-7.025 52.503-19.672s10.655-36.919 19.672-52.503c8.888-15.363 30.982-25.711 35.671-43.258 4.533-16.958-9.3-36.915-9.3-55.303z" fill="#ffde5c"/><g><g><path d="m205.99 136.066c-13.785 0-25-11.215-25-25s11.215-25 25-25 25 11.215 25 25-11.215 25-25 25z" fill="#df646e"/></g><g><path d="m190.881 399.009c-13.785 0-25-11.215-25-25s11.215-25 25-25 25 11.215 25 25-11.215 25-25 25z" fill="#df646e"/></g><g><path d="m238.504 222.879c-13.785 0-25-11.215-25-25s11.215-25 25-25 25 11.215 25 25-11.215 25-25 25z" fill="#df646e"/></g><g><path d="m385.49 226.223c-13.785 0-25-11.215-25-25s11.215-25 25-25 25 11.215 25 25-11.215 25-25 25z" fill="#df646e"/></g><g><path d="m365.398 388.514c-13.785 0-25-11.215-25-25s11.215-25 25-25 25 11.215 25 25-11.215 25-25 25z" fill="#df646e"/></g></g><g><g><path d="m225.994 116.065c-13.79 0-25-11.21-25-25 0-1.56.14-3.09.43-4.57-11.62 2.15-20.43 12.35-20.43 24.57 0 13.79 11.21 25 25 25 12.22 0 22.43-8.82 24.57-20.43-1.48.29-3.01.43-4.57.43z" fill="#dc4955"/></g><g><path d="m210.884 379.005c-13.79 0-25-11.21-25-25 0-1.56.14-3.09.43-4.57-11.61 2.14-20.43 12.35-20.43 24.57 0 13.79 11.21 25 25 25 12.22 0 22.43-8.82 24.57-20.43-1.48.29-3.01.43-4.57.43z" fill="#dc4955"/></g><g><path d="m258.504 202.875c-13.79 0-25-11.21-25-25 0-1.56.14-3.09.43-4.57-11.61 2.14-20.43 12.35-20.43 24.57 0 13.79 11.21 25 25 25 12.23 0 22.43-8.81 24.57-20.43-1.48.29-3.01.43-4.57.43z" fill="#dc4955"/></g><g><path d="m405.494 206.225c-13.79 0-25-11.22-25-25 0-1.56.14-3.09.43-4.57-11.62 2.14-20.43 12.34-20.43 24.57 0 13.78 11.21 25 25 25 12.22 0 22.42-8.82 24.57-20.43-1.48.29-3.01.43-4.57.43z" fill="#dc4955"/></g><g><path d="m385.394 368.515c-13.78 0-25-11.22-25-25 0-1.56.14-3.09.43-4.57-11.61 2.14-20.43 12.34-20.43 24.57 0 13.78 11.22 25 25 25 12.23 0 22.43-8.82 24.57-20.43-1.48.29-3.01.43-4.57.43z" fill="#dc4955"/></g></g><path d="m299.073 394.49c13.38-13.897 11.817-37.556 10.903-45.174-.173-1.445-1.35-2.553-2.803-2.644-7.744-.481-31.918-.742-45.321 13.179-13.38 13.897-11.817 37.556-10.903 45.174.173 1.445 1.35 2.553 2.803 2.644 7.743.481 31.918.742 45.321-13.179z" fill="#b7e546"/><path d="m307.334 380.525c-1.74 5.05-4.37 9.92-8.26 13.96-13.4 13.93-37.58 13.66-45.32 13.18-1.46-.09-2.63-1.19-2.81-2.64-.91-7.62-2.47-31.28 10.91-45.17 3.37-3.5 7.43-6.11 11.73-8.03-4.26 12.33-3.29 25.8-2.64 31.2.18 1.45 1.35 2.55 2.81 2.64 5.79.36 20.78.6 33.58-5.14z" fill="#abd641"/><path d="m272.991 299.551c16.721-9.62 21.811-32.777 23.055-40.349.236-1.437-.585-2.828-1.955-3.32-7.303-2.619-30.448-9.603-47.199.033-16.721 9.62-21.811 32.778-23.055 40.349-.236 1.437.585 2.828 1.955 3.32 7.304 2.618 30.449 9.603 47.199-.033z" fill="#b7e546"/><path d="m295.094 264.035c-2.26 9.95-8.11 27.47-22.1 35.52-16.75 9.63-39.9 2.65-47.2.03-1.37-.49-2.19-1.88-1.96-3.32.88-5.3 3.63-18.25 10.96-28.83-.45 1.94-.75 3.59-.96 4.83-.23 1.44.59 2.83 1.96 3.32 7.3 2.62 30.45 9.6 47.2-.03 5.01-2.88 8.98-6.99 12.1-11.52z" fill="#abd641"/><path d="m335.471 141.339c-1.495-19.233-20.215-33.785-26.515-38.164-1.195-.831-2.805-.688-3.838.338-5.504 5.468-21.762 23.361-20.264 42.627 1.495 19.233 20.215 33.785 26.515 38.164 1.195.831 2.805.688 3.838-.338 5.504-5.468 21.762-23.361 20.264-42.627z" fill="#b7e546"/><path d="m315.204 183.965c-1.03 1.03-2.64 1.17-3.84.34-6.3-4.38-25.01-18.93-26.51-38.17-.33-4.19.19-8.31 1.25-12.26 5.48 14.33 19.07 24.82 24.26 28.43 1.2.83 2.81.69 3.84-.34 4.31-4.28 15.2-16.16 19.02-30.36 1.18 3.08 1.98 6.33 2.25 9.73 1.5 19.27-14.76 37.16-20.27 42.63z" fill="#abd641"/><path d="m166.523 299.573c2.311-19.152-13.185-37.098-18.502-42.629-1.009-1.049-2.615-1.225-3.83-.422-6.471 4.28-25.927 18.631-28.242 37.816-2.311 19.152 13.185 37.098 18.502 42.629 1.009 1.049 2.615 1.225 3.83.422 6.47-4.279 25.926-18.63 28.242-37.816z" fill="#b7e546"/><path d="m154.374 323.615c-6.08 6.76-12.78 11.58-16.09 13.77-1.22.81-2.82.63-3.83-.42-5.32-5.53-20.82-23.47-18.51-42.63 2.32-19.18 21.78-33.53 28.25-37.81.89-.59 1.99-.66 2.91-.23-5.8 6.45-11.03 14.67-12.16 24.04-2.31 19.16 13.19 37.1 18.51 42.63.27.28.58.5.92.65z" fill="#abd641"/><path d="m399.782 268.368c-11.457-15.52-35.043-17.945-42.707-18.321-1.454-.071-2.744.903-3.076 2.32-1.772 7.553-6.082 31.342 5.396 46.889 11.457 15.52 35.043 17.945 42.707 18.321 1.454.071 2.744-.903 3.076-2.32 1.772-7.553 6.082-31.342-5.396-46.889z" fill="#b7e546"/><path d="m405.174 315.255c-.33 1.42-1.62 2.39-3.07 2.32-7.67-.37-31.25-2.8-42.71-18.32-11.48-15.55-7.17-39.33-5.39-46.89.13-.55.4-1.04.78-1.42.39 8.26 2.33 17.16 7.61 24.31 11.46 15.52 35.04 17.95 42.71 18.32.88.04 1.71-.3 2.29-.9.44 9.69-1.26 18.5-2.22 22.58z" fill="#abd641"/><path d="m158.996 210.711c16.847-9.398 22.242-32.487 23.586-40.041.255-1.433-.548-2.836-1.911-3.345-7.268-2.715-30.319-10.005-47.195-.59-16.847 9.398-22.242 32.487-23.586 40.041-.255 1.433.548 2.836 1.911 3.345 7.268 2.715 30.319 10.005 47.195.59z" fill="#b7e546"/><path d="m168.904 202.405c-2.76 3.26-6.03 6.15-9.91 8.31-16.87 9.41-39.93 2.12-47.19-.59-1.37-.51-2.17-1.92-1.91-3.35 1.34-7.55 6.73-30.64 23.58-40.04 3.19-1.78 6.6-2.96 10.09-3.69-9.21 10.89-12.64 25.92-13.67 31.73-.26 1.43.54 2.84 1.91 3.35 5.89 2.2 22.16 7.41 37.1 4.28z" fill="#abd641"/></g><g><path d="m499.764 256.005c0-8.405 2.847-17.455 5.86-27.036 4.264-13.554 8.672-27.569 5.032-41.188-3.799-14.215-14.882-24.327-25.6-34.105-7.181-6.552-13.963-12.74-17.912-19.564-4.058-7.014-6.08-16.109-8.222-25.739-3.12-14.031-6.346-28.54-16.546-38.74-7.921-7.921-18.581-11.513-26.983-13.758-3.999-1.063-8.112 1.309-9.182 5.311-1.069 4.002 1.309 8.112 5.311 9.182 9.791 2.615 16.035 5.66 20.248 9.873 7.112 7.111 9.734 18.904 12.511 31.389 2.293 10.315 4.666 20.981 9.88 29.995 5.109 8.831 13.078 16.102 20.785 23.133 9.542 8.706 18.554 16.93 21.219 26.898 2.514 9.406-1.063 20.776-4.85 32.814-3.221 10.24-6.552 20.828-6.552 31.537s3.331 21.298 6.552 31.537c3.787 12.038 7.363 23.408 4.85 32.814-2.665 9.969-11.677 18.192-21.219 26.897-7.707 7.031-15.675 14.302-20.785 23.133-5.215 9.014-7.586 19.68-9.88 29.995-2.776 12.484-5.398 24.277-12.51 31.39-7.112 7.112-18.904 9.734-31.389 12.511-10.315 2.294-20.982 4.665-29.996 9.88-8.831 5.109-16.102 13.078-23.133 20.785-8.706 9.541-16.929 18.554-26.898 21.219-9.404 2.513-20.776-1.063-32.814-4.85-10.24-3.221-20.828-6.552-31.537-6.552-10.708 0-21.296 3.33-31.536 6.552-12.039 3.786-23.408 7.365-32.815 4.849-9.969-2.664-18.192-11.676-26.897-21.218-7.031-7.706-14.302-15.676-23.133-20.784-9.013-5.216-19.68-7.587-29.996-9.881-12.484-2.776-24.277-5.398-31.389-12.511-7.112-7.111-9.734-18.904-12.511-31.389-2.293-10.315-4.666-20.981-9.88-29.995-5.109-8.831-13.078-16.102-20.785-23.133-9.542-8.706-18.554-16.93-21.219-26.898-2.514-9.406 1.063-20.776 4.85-32.814 3.221-10.239 6.552-20.828 6.552-31.537s-3.331-21.297-6.552-31.537c-3.787-12.038-7.363-23.408-4.85-32.814 1.282-4.797 4.102-9.522 8.873-14.873 2.757-3.091 2.485-7.832-.606-10.589-3.091-2.756-7.833-2.486-10.589.606-6.391 7.166-10.257 13.834-12.168 20.982-3.64 13.619.769 27.635 5.032 41.188 3.014 9.581 5.86 18.631 5.86 27.036s-2.847 17.455-5.86 27.036c-4.264 13.554-8.672 27.569-5.032 41.188 3.799 14.215 14.882 24.327 25.6 34.105 7.181 6.552 13.963 12.74 17.912 19.564 4.058 7.014 6.08 16.109 8.222 25.739 3.12 14.031 6.346 28.54 16.546 38.74 10.2 10.199 24.708 13.426 38.739 16.546 9.63 2.141 18.727 4.163 25.74 8.222 6.824 3.948 13.013 10.73 19.564 17.911 9.779 10.718 19.891 21.8 34.104 25.6 13.62 3.64 27.636-.769 41.19-5.032 9.581-3.014 18.63-5.86 27.035-5.86s17.455 2.847 27.035 5.86c10.02 3.152 20.292 6.383 30.47 6.383 3.59 0 7.168-.401 10.719-1.351 14.215-3.8 24.327-14.882 34.106-25.6 6.551-7.181 12.74-13.963 19.564-17.911 7.013-4.059 16.109-6.081 25.74-8.222 14.031-3.12 28.54-6.347 38.739-16.546 10.201-10.201 13.427-24.71 16.546-38.741 2.141-9.63 4.164-18.727 8.221-25.739 3.948-6.824 10.731-13.012 17.912-19.563 10.717-9.779 21.8-19.891 25.6-34.105 3.64-13.619-.769-27.635-5.032-41.188-3.014-9.582-5.861-18.632-5.861-27.037z"/><path d="m44.32 154.762c2.045 0 4.083-.831 5.563-2.467 11.013-11.474 14.631-25.578 17.843-40.667 2.776-12.484 5.398-24.277 12.511-31.39 7.112-7.112 18.904-9.734 31.389-12.511 10.315-2.293 20.982-4.665 29.996-9.88 8.831-5.109 16.102-13.078 23.133-20.785 8.706-9.541 16.929-18.554 26.898-21.219 9.405-2.511 20.776 1.063 32.814 4.85 10.24 3.221 20.828 6.552 31.537 6.552 10.708 0 21.296-3.33 31.536-6.552 12.039-3.786 23.408-7.364 32.815-4.849 9.969 2.664 18.192 11.676 26.897 21.218 8.678 9.549 17.438 19.047 29.417 23.892 3.816 1.614 8.215-.173 9.828-3.988 1.612-3.815-.174-8.216-3.989-9.828-9.754-4.059-16.067-11.412-24.175-20.186-9.779-10.718-19.891-21.8-34.104-25.599-13.623-3.646-27.637.769-41.19 5.031-9.581 3.014-18.63 5.86-27.035 5.86s-17.455-2.847-27.035-5.86c-13.555-4.264-27.571-8.674-41.189-5.031-14.215 3.8-24.327 14.882-34.106 25.6-6.551 7.181-12.74 13.963-19.564 17.911-7.013 4.059-16.109 6.081-25.74 8.223-14.031 3.119-28.54 6.346-38.739 16.545-10.201 10.201-13.427 24.71-16.546 38.741-3.136 13.835-5.117 24.086-14.322 33.856-2.78 3.071-2.543 7.814.528 10.594 1.434 1.298 3.235 1.939 5.029 1.939z"/><path d="m469.656 198.766c-3.264-12.211-12.646-20.772-21.721-29.052-5.917-5.399-11.507-10.499-14.705-16.025-3.29-5.686-4.957-13.184-6.722-21.121-2.642-11.88-5.373-24.164-14.139-32.93s-21.05-11.497-32.929-14.139c-7.938-1.765-15.436-3.432-21.121-6.722-5.527-3.197-10.627-8.787-16.026-14.705-8.279-9.073-16.84-18.456-29.051-21.721-11.713-3.13-23.579.603-35.057 4.214-7.9 2.485-15.361 4.832-22.183 4.832s-14.283-2.347-22.183-4.832c-11.477-3.609-23.344-7.345-35.057-4.213-12.21 3.264-20.771 12.646-29.05 21.72-5.4 5.918-10.5 11.508-16.027 14.705-5.686 3.29-13.183 4.957-21.121 6.722-11.879 2.642-24.164 5.373-32.929 14.14-8.766 8.766-11.497 21.05-14.139 32.929-1.765 7.938-3.432 15.436-6.721 21.121-3.198 5.527-8.788 10.627-14.706 16.026-9.074 8.279-18.457 16.84-21.72 29.051-3.13 11.711.603 23.579 4.213 35.057 2.485 7.899 4.832 15.361 4.832 22.183s-2.347 14.283-4.832 22.183c-3.61 11.478-7.343 23.346-4.213 35.057 3.264 12.211 12.646 20.772 21.721 29.052 5.917 5.399 11.507 10.499 14.705 16.025 3.29 5.686 4.957 13.184 6.722 21.121 2.642 11.88 5.373 24.164 14.139 32.93s21.05 11.497 32.929 14.139c7.938 1.765 15.436 3.432 21.121 6.722 5.527 3.197 10.627 8.787 16.026 14.705 8.279 9.073 16.84 18.456 29.051 21.721 3.084.824 6.178 1.172 9.274 1.172 8.66 0 17.328-2.727 25.783-5.386 7.9-2.485 15.361-4.832 22.183-4.832s14.283 2.347 22.183 4.832c11.477 3.608 23.343 7.343 35.057 4.213 4.398-1.176 8.603-3.227 12.854-6.271 3.368-2.411 4.143-7.097 1.732-10.464-2.412-3.367-7.098-4.146-10.464-1.731-2.758 1.975-5.373 3.275-7.996 3.976-7.496 2.007-16.816-.926-26.683-4.03-8.632-2.716-17.559-5.523-26.684-5.523s-18.051 2.808-26.684 5.523c-9.867 3.104-19.187 6.036-26.682 4.031-7.966-2.13-14.707-9.518-21.843-17.34-5.93-6.499-12.062-13.22-19.596-17.579-7.686-4.446-16.679-6.446-25.377-8.38-10.234-2.275-19.901-4.425-25.579-10.104-5.678-5.677-7.827-15.344-10.103-25.578-1.934-8.697-3.934-17.691-8.38-25.377-4.359-7.533-11.079-13.665-17.578-19.595-7.822-7.137-15.211-13.878-17.34-21.844-2.004-7.498.927-16.816 4.031-26.683 2.715-8.632 5.523-17.559 5.523-26.684s-2.808-18.052-5.523-26.684c-3.104-9.866-6.035-19.185-4.031-26.683 2.129-7.965 9.517-14.706 17.339-21.843 6.499-5.93 13.22-12.062 17.579-19.596 4.446-7.686 6.446-16.679 8.38-25.377 2.275-10.234 4.425-19.9 10.103-25.578 5.678-5.679 15.344-7.828 25.579-10.104 8.698-1.934 17.691-3.934 25.377-8.38 7.534-4.359 13.666-11.08 19.596-17.579 7.137-7.822 13.878-15.21 21.843-17.339 7.496-2.007 16.816.926 26.683 4.03 8.632 2.716 17.559 5.523 26.684 5.523s18.051-2.808 26.684-5.523c9.867-3.104 19.186-6.033 26.682-4.031 7.966 2.13 14.707 9.518 21.843 17.34 5.93 6.499 12.062 13.22 19.596 17.579 7.686 4.446 16.679 6.446 25.377 8.38 10.234 2.275 19.901 4.425 25.579 10.104 5.678 5.677 7.827 15.344 10.103 25.578 1.934 8.697 3.934 17.691 8.38 25.377 4.359 7.533 11.079 13.665 17.578 19.595 7.822 7.137 15.211 13.878 17.34 21.844 2.004 7.498-.927 16.816-4.031 26.683-2.715 8.632-5.523 17.559-5.523 26.684s2.808 18.052 5.523 26.684c3.104 9.866 6.035 19.185 4.031 26.683-2.129 7.965-9.517 14.706-17.339 21.843-6.499 5.93-13.22 12.062-17.579 19.596-4.446 7.686-6.446 16.679-8.38 25.377-2.275 10.234-4.425 19.9-10.103 25.578-5.678 5.679-15.344 7.828-25.579 10.104-8.698 1.934-17.691 3.934-25.376 8.38-2.991 1.73-5.969 3.951-9.105 6.79-3.071 2.779-3.308 7.522-.528 10.594 2.779 3.07 7.522 3.307 10.593.527 2.344-2.121 4.486-3.732 6.551-4.927 5.686-3.29 13.183-4.957 21.121-6.722 11.879-2.642 24.164-5.373 32.929-14.14 8.766-8.766 11.497-21.05 14.139-32.929 1.765-7.938 3.432-15.436 6.721-21.121 3.198-5.527 8.788-10.627 14.706-16.026 9.074-8.279 18.457-16.84 21.72-29.051 3.13-11.711-.603-23.579-4.213-35.057-2.485-7.899-4.832-15.361-4.832-22.183s2.347-14.283 4.832-22.183c3.611-11.479 7.344-23.347 4.213-35.058z"/><path d="m250.471 414.961c.421.049 3.619.402 8.397.402 11.616 0 32.569-2.088 45.643-15.71 18.521-19.3 12.707-52.749 12.45-54.164-.589-3.247-3.231-5.728-6.508-6.11-1.445-.167-35.589-3.916-54.04 15.309-18.521 19.3-12.707 52.748-12.45 54.163.589 3.247 3.231 5.726 6.508 6.11zm16.765-49.887c9.527-9.926 26.617-11.168 35.604-11.086.602 8.793.282 25.45-9.15 35.278-9.527 9.927-26.625 11.188-35.603 11.085-.602-8.792-.283-25.448 9.149-35.277z"/><path d="m220.567 305.612c.893.378 15.303 6.358 31.654 6.357 8.167 0 16.817-1.491 24.51-5.917 23.186-13.339 26.973-47.078 27.123-48.508.344-3.282-1.497-6.403-4.536-7.689-.381-.161-9.472-3.97-21.235-5.619-4.1-.562-7.894 2.285-8.468 6.387-.575 4.102 2.284 7.894 6.386 8.469 4.639.65 8.813 1.715 11.916 2.654-1.885 8.609-6.857 24.512-18.665 31.305-11.924 6.86-28.688 3.274-37.282.67 1.619-7.385 5.517-20.141 14.086-27.941 3.063-2.788 3.286-7.532.497-10.595-2.788-3.063-7.532-3.285-10.595-.497-16.826 15.317-19.808 42.103-19.927 43.235-.345 3.281 1.497 6.402 4.536 7.689z"/><path d="m342.949 140.758c-2.073-26.669-30.907-44.595-32.133-45.345-2.815-1.723-6.425-1.402-8.892.79-1.088.965-26.613 23.951-24.547 50.518 2.073 26.669 30.906 44.595 32.133 45.345 2.803 1.716 6.417 1.408 8.892-.79 1.088-.965 26.612-23.952 24.547-50.518zm-30.381 35.111c-6.962-5.404-19.18-16.73-20.236-30.311-1.066-13.706 9.363-27.289 15.411-33.933 6.958 5.436 19.204 16.825 20.251 30.294 1.066 13.718-9.38 27.312-15.426 33.95z"/><path d="m131.103 344.212c2.43 2.25 6.04 2.629 8.874.973 1.256-.733 30.799-18.258 33.992-44.713 3.205-26.556-21.545-49.796-22.601-50.772-2.422-2.241-6.023-2.635-8.874-.973-1.256.733-30.799 18.258-33.991 44.713-3.206 26.556 21.545 49.796 22.6 50.772zm-7.709-48.975c1.647-13.648 14.541-24.918 21.776-30.244 5.754 6.696 15.525 20.271 13.906 33.683-1.648 13.658-14.562 24.936-21.794 30.257-5.764-6.667-15.52-20.172-13.888-33.696z"/><path d="m347.417 247.86c-.411 1.396-9.882 34.413 5.944 55.851 15.446 20.922 47.965 21.436 51.081 21.436h.194c3.3-.031 6.191-2.216 7.124-5.381.411-1.396 9.882-34.413-5.944-55.851-15.886-21.519-49.83-21.412-51.275-21.436-3.3.031-6.192 2.216-7.124 5.381zm13.111 9.976c8.768.895 25.131 4.028 33.221 14.986 8.171 11.068 6.513 28.132 4.901 36.966-8.768-.895-25.131-4.028-33.221-14.986-8.171-11.068-6.513-28.132-4.901-36.966z"/><path d="m129.822 160.185c-23.359 13.031-27.591 46.719-27.76 48.146-.387 3.276 1.413 6.422 4.435 7.748.904.396 15.731 6.781 32.443 6.781 7.907 0 16.237-1.431 23.71-5.6 23.359-13.031 27.591-46.719 27.76-48.146.387-3.276-1.413-6.422-4.435-7.748-1.331-.584-32.883-14.162-56.153-1.181zm44.596 12.922c-1.999 8.584-7.181 24.419-19.076 31.055-12.015 6.704-28.729 2.896-37.289.178 1.999-8.584 7.181-24.419 19.076-31.055 12.016-6.703 28.731-2.895 37.289-.178z"/><path d="m205.99 136.066c13.785 0 25-11.215 25-25s-11.215-25-25-25-25 11.215-25 25 11.214 25 25 25zm0-35c5.514 0 10 4.486 10 10s-4.486 10-10 10-10-4.486-10-10 4.485-10 10-10z"/><path d="m190.881 399.009c13.785 0 25-11.215 25-25s-11.215-25-25-25-25 11.215-25 25 11.215 25 25 25zm0-35c5.514 0 10 4.486 10 10s-4.486 10-10 10-10-4.486-10-10 4.486-10 10-10z"/><path d="m238.504 222.879c13.785 0 25-11.215 25-25s-11.215-25-25-25-25 11.215-25 25 11.215 25 25 25zm0-35c5.514 0 10 4.486 10 10s-4.486 10-10 10-10-4.486-10-10 4.486-10 10-10z"/><path d="m410.49 201.223c0-13.785-11.215-25-25-25s-25 11.215-25 25 11.215 25 25 25 25-11.215 25-25zm-35 0c0-5.514 4.486-10 10-10s10 4.486 10 10-4.486 10-10 10-10-4.486-10-10z"/><path d="m365.398 388.514c13.785 0 25-11.215 25-25s-11.215-25-25-25-25 11.215-25 25 11.215 25 25 25zm0-35c5.514 0 10 4.486 10 10s-4.486 10-10 10-10-4.486-10-10 4.486-10 10-10z"/></g></g></svg>