<svg id="Capa_1" enable-background="new 0 0 512 512" height="512" viewBox="0 0 512 512" width="512" xmlns="http://www.w3.org/2000/svg"><g><path d="m429.197 445.429v32.966c0 14.418-11.687 26.105-26.105 26.105h-6.526c-7.932 0-15.432-3.604-20.392-9.799l-22.28-27.852-15.228-21.42z" fill="#d74049"/><path d="m158.106 466.848-22.28 27.852c-4.96 6.195-12.46 9.799-20.392 9.799h-6.526c-14.418 0-26.105-11.687-26.105-26.105v-32.966h94.547z" fill="#d74049"/><path d="m431.707 7.5h-34.239c-31.024 0-34.036 8.986-34.036 20.081v36.396h88.356v-36.396c0-11.095-8.986-20.081-20.081-20.081z" fill="#6a8098"/><path d="m397.468 7.5h-31.024c-11.095 0-20.081 8.986-20.081 20.081v36.396h31.024v-36.396c.001-11.095 8.987-20.081 20.081-20.081z" fill="#516a7f"/><path d="m288.631 7.5h-34.239c-31.024 0-34.036 8.986-34.036 20.081v36.396h88.356v-36.396c0-11.095-8.986-20.081-20.081-20.081z" fill="#6a8098"/><path d="m254.393 7.5h-31.024c-11.095 0-20.081 8.986-20.081 20.081v36.396h31.024v-36.396c0-11.095 8.986-20.081 20.081-20.081z" fill="#516a7f"/><path d="m145.556 7.5h-34.239c-31.024 0-34.036 8.986-34.036 20.081v36.396h88.356v-36.396c-.001-11.095-8.987-20.081-20.081-20.081z" fill="#6a8098"/><path d="m111.317 7.5h-31.024c-11.095 0-20.081 8.986-20.081 20.081v36.396h31.024v-36.396c0-11.095 8.986-20.081 20.081-20.081z" fill="#516a7f"/><path d="m504.5 165.636v-56.226c0-35.493-28.766-64.259-64.259-64.259-110.885 0-160.796 0-271.593 0-91.87 0-99.153 28.766-99.153 64.259v82.582h405.05z" fill="#fff9e7"/><path d="m168.648 45.152h-96.89c-35.492 0-64.258 28.765-64.258 64.258v56.226l19.932 26.356h76.958c0-45.538 0-80.828 0-82.582 0-35.493 28.766-64.258 64.258-64.258z" fill="#fcf2d0"/><path d="m504.5 402.59v-236.954h-400.11l-31.627 19.077v217.877c0 35.493 10.04 64.259 95.886 64.259h271.593c35.492-.001 64.258-28.766 64.258-64.259z" fill="#e0796e"/><path d="m104.39 402.59c0-7.494 0-153.907 0-236.954h-96.89v236.954c0 35.493 28.766 64.259 64.259 64.259h96.89c-35.493-.001-64.259-28.766-64.259-64.259z" fill="#dc5c5c"/><path d="m414.136 105.394c0-9.364-5.692-17.393-13.806-20.82-17.923 0-23.177 11.456-23.177 20.82s5.254 20.82 23.177 20.82c8.115-3.427 13.806-11.456 13.806-20.82z" fill="#6a8098"/><path d="m386.525 105.394c0-9.364 5.692-17.393 13.806-20.82-14.775-6.239-31.376 4.577-31.376 20.82 0 16.233 16.593 27.063 31.376 20.82-8.114-3.427-13.806-11.456-13.806-20.82z" fill="#516a7f"/><path d="m323.773 105.394c0-9.364-5.692-17.393-13.806-20.82-17.923 0-23.177 11.456-23.177 20.82s5.254 20.82 23.177 20.82c8.114-3.427 13.806-11.456 13.806-20.82z" fill="#6a8098"/><path d="m296.162 105.394c0-9.364 5.692-17.393 13.806-20.82-14.775-6.239-31.376 4.577-31.376 20.82 0 16.233 16.593 27.063 31.376 20.82-8.115-3.427-13.806-11.456-13.806-20.82z" fill="#516a7f"/><path d="m233.409 105.394c0-9.364-5.692-17.393-13.806-20.82-17.923 0-23.177 11.456-23.177 20.82s5.254 20.82 23.177 20.82c8.114-3.427 13.806-11.456 13.806-20.82z" fill="#6a8098"/><path d="m205.798 105.394c0-9.364 5.692-17.393 13.806-20.82-14.775-6.239-31.376 4.577-31.376 20.82 0 16.233 16.593 27.063 31.376 20.82-8.114-3.427-13.806-11.456-13.806-20.82z" fill="#516a7f"/><path d="m143.045 105.394c0-9.364-5.692-17.393-13.806-20.82-17.923 0-23.177 11.456-23.177 20.82s5.254 20.82 23.177 20.82c8.115-3.427 13.806-11.456 13.806-20.82z" fill="#6a8098"/><path d="m115.434 105.394c0-9.364 5.692-17.393 13.806-20.82-14.775-6.239-31.376 4.577-31.376 20.82 0 16.233 16.593 27.063 31.376 20.82-8.114-3.427-13.806-11.456-13.806-20.82z" fill="#516a7f"/><path d="m419.157 361.424v-102.241c0-22.551-18.284-40.834-40.834-40.834h-179.383c-64.095 0-66.437 18.284-66.437 40.834v122.824h264.965z" fill="#bae1f6"/><path d="m158.106 259.183c0-22.551 18.284-40.834 40.834-40.834h-65.263c-22.551 0-40.834 18.284-40.834 40.834v102.241l24.097 20.583h42.105c-.61-2.806-.94-5.716-.94-8.705.001-23.163.001-90.958.001-114.119z" fill="#95cbec"/><path d="m264.203 361.424c54.389 0 97.221-.612 97.221-26.356 0-13.876-12.43-28.384-32.4-39.218l-27.507 5.979-8.277-19.122c-10.753-2.44-22.35-3.896-34.459-4.096-3.938 1.998 13.38-6.79-34.089 17.298-34.081 20.839-35.71 43.658-10.403 65.176l21.964 19.416z" fill="#cf8c5d"/><g fill="#c97c48"><path d="m224.692 295.909-12.72-11.505c-36.246 9.91-61.397 30.924-61.397 50.664 0 20.148 26.236 24.902 63.714 26.017-3.49-21.968-.098-44.828 10.403-65.176z"/><path d="m293.24 282.707c13.454 3.042 25.593 7.621 35.784 13.143-14.719 21.035-32.822 33.424-41.166 27.872-7.339-4.899-4.739-22.149 5.382-41.015z"/><path d="m250.307 293.441c3.323-4.99 6.165-9.99 8.474-14.83-.924-.01-1.847-.02-2.781-.02-7.245 0-14.306.475-21.137 1.326-24.142 6.994-31.331 27.179-20.08 44.868 9.796-1.878 23.908-13.928 35.524-31.344z"/></g><path d="m211.973 284.404c-9.378 18.193-11.607 34.569-4.488 39.318 1.952 1.3 4.443 1.609 7.297 1.062 3.117-16.661 10.139-31.944 20.08-44.868-7.993.996-15.667 2.512-22.889 4.488z" fill="#c16d35"/><path d="m419.157 373.302v-11.878h-261.05l-25.603 11.878c0 22.551 1.175 40.834 66.437 40.834h179.382c22.55 0 40.834-18.283 40.834-40.834z" fill="#6a8098"/><path d="m158.106 373.302c0-3.189 0-7.229 0-11.878h-65.263v11.878c0 22.551 18.284 40.834 40.834 40.834h65.263c-22.55 0-40.834-18.283-40.834-40.834z" fill="#516a7f"/><path d="m504.5 222.225c-4.143 0-7.5 3.357-7.5 7.5v172.865c0 31.297-25.462 56.759-56.759 56.759-30.414 0-197.411 0-202.313 0-4.143 0-7.5 3.357-7.5 7.5s3.357 7.5 7.5 7.5h112.361l20.031 25.039c6.417 8.016 15.983 12.612 26.246 12.612h6.526c18.53 0 33.605-15.075 33.605-33.605v-4.046h3.544c39.568 0 71.759-32.19 71.759-71.759v-172.865c0-4.143-3.357-7.5-7.5-7.5zm-82.803 256.17c0 10.259-8.347 18.605-18.605 18.605h-6.526c-5.684 0-10.981-2.547-14.535-6.985l-12.532-15.666h52.199v4.046z"/><path d="m459.288 40.237v-12.656c0-15.208-12.373-27.581-27.581-27.581h-65.263c-15.208 0-27.581 12.373-27.581 27.581v10.07h-22.651v-10.07c0-15.208-12.373-27.581-27.581-27.581h-65.262c-15.208 0-27.581 12.373-27.581 27.581v10.07h-22.651v-10.07c0-15.208-12.373-27.581-27.581-27.581h-65.263c-15.208 0-27.581 12.373-27.581 27.581v12.656c-30.35 8.368-52.712 36.2-52.712 69.173v293.18c0 39.568 32.19 71.759 71.759 71.759h3.544v4.046c0 18.53 15.075 33.605 33.605 33.605h6.526c10.263 0 19.829-4.597 26.248-12.614l20.029-25.037h41.075c4.143 0 7.5-3.357 7.5-7.5s-3.357-7.5-7.5-7.5c-14.339 0-115.175 0-131.027 0-31.297 0-56.759-25.462-56.759-56.759v-229.453h482v21.446c0 4.143 3.357 7.5 7.5 7.5s7.5-3.357 7.5-7.5v-85.173c0-32.973-22.362-60.805-52.712-69.173zm-329.316 449.776c-3.556 4.44-8.854 6.987-14.537 6.987h-6.526c-10.259 0-18.605-8.347-18.605-18.605v-4.046h52.199zm223.891-462.432c0-6.938 5.644-12.581 12.581-12.581h65.263c6.938 0 12.581 5.644 12.581 12.581v10.07h-90.425zm-143.075 0c0-6.938 5.644-12.581 12.581-12.581h65.262c6.938 0 12.581 5.644 12.581 12.581v10.07h-90.424zm-143.076 10.07v-10.07c0-6.937 5.643-12.581 12.581-12.581h65.263c6.938 0 12.581 5.644 12.581 12.581v10.07zm-52.712 120.486v-48.727c0-31.297 25.462-56.759 56.759-56.759h368.482c31.297 0 56.759 25.462 56.759 56.759v48.727z"/><path d="m210.818 75.303c-16.592 0-30.091 13.499-30.091 30.091s13.499 30.091 30.091 30.091 30.091-13.499 30.091-30.091-13.499-30.091-30.091-30.091zm0 45.181c-8.321 0-15.091-6.77-15.091-15.091s6.77-15.091 15.091-15.091 15.091 6.77 15.091 15.091-6.769 15.091-15.091 15.091z"/><path d="m120.454 75.303c-16.592 0-30.091 13.499-30.091 30.091s13.499 30.091 30.091 30.091c16.593 0 30.092-13.499 30.092-30.091s-13.499-30.091-30.092-30.091zm0 45.181c-8.321 0-15.091-6.77-15.091-15.091s6.77-15.091 15.091-15.091 15.092 6.77 15.092 15.091-6.771 15.091-15.092 15.091z"/><path d="m391.546 75.303c-16.593 0-30.092 13.499-30.092 30.091s13.499 30.091 30.092 30.091c16.592 0 30.091-13.499 30.091-30.091s-13.499-30.091-30.091-30.091zm0 45.181c-8.321 0-15.092-6.77-15.092-15.091s6.771-15.091 15.092-15.091 15.091 6.77 15.091 15.091-6.77 15.091-15.091 15.091z"/><path d="m301.182 75.303c-16.592 0-30.091 13.499-30.091 30.091s13.499 30.091 30.091 30.091 30.091-13.499 30.091-30.091-13.5-30.091-30.091-30.091zm0 45.181c-8.321 0-15.091-6.77-15.091-15.091s6.77-15.091 15.091-15.091 15.091 6.77 15.091 15.091-6.77 15.091-15.091 15.091z"/><path d="m426.656 373.302v-114.119c0-26.651-21.683-48.334-48.334-48.334h-244.644c-26.651 0-48.334 21.683-48.334 48.334v114.119c0 26.652 21.683 48.335 48.334 48.335h244.645c26.651 0 48.333-21.683 48.333-48.335zm-292.978-147.453h244.645c18.381 0 33.334 14.953 33.334 33.334v94.741h-50.838c5.386-4.974 8.106-11.267 8.106-18.855 0-20.058-18.743-36.358-36.324-45.811-.001 0-.002-.001-.003-.001-34.64-18.774-81.492-23.337-122.602-12.087-40.026 10.943-66.919 34.211-66.919 57.898 0 7.588 2.72 13.882 8.106 18.855h-50.838v-94.741c-.001-18.38 14.952-33.333 33.333-33.333zm46.531 124.686c-22.133-4.262-22.133-12.114-22.133-15.467 0-13.354 16.637-28.518 40.573-38.253-4.942 15.621-3.43 27.74 4.679 33.151 2.761 1.838 5.79 2.674 8.992 2.673 14.257-.001 31.912-16.572 44.229-35.04 2.496-3.748 4.756-7.546 6.767-11.341 6.397.285 12.729.945 18.944 1.96-7.128 16.625-9.702 34.309 1.444 41.749 2.685 1.786 5.649 2.597 8.795 2.597 12.156 0 26.981-12.118 38.537-26.845 14.258 9.004 22.888 19.929 22.888 29.35 0 3.353 0 11.205-22.133 15.467-16.303 3.139-39.265 3.389-67.588 3.389-29.19-.109-62.965.659-83.994-3.39zm36.958-59.717c9.313-2.331 18.934-3.814 28.745-4.412-5.929 9.462-14.141 19.641-23.078 26.179-6.979 5.106-10.663 5.152-11.179 4.905-1.522-1.357-1.871-11.131 5.512-26.672zm100.405 7.756c-12.747 15.598-23.54 19.889-25.541 18.917-1.553-1.379-1.87-10.892 5.217-26.056 7.129 1.912 13.994 4.316 20.324 7.139zm-217.228 74.728v-4.378h311.312v4.378c0 18.381-14.953 33.335-33.334 33.335h-244.644c-18.381 0-33.334-14.954-33.334-33.335z"/></g></svg>